# xmcd
#
# Track frame offsets: 
#        150
#        26971
#        53224
#        84508
#        109354
#        125371
#        145689
#        164870
#        194051
#
# Disc length: 3091 seconds
#
# Revision: 0
# Processed by: cddbd v1.5.2PL0 Copyright (c) Steve Scherf et al.
# Submitted via: ExactAudioCopy v0.99pb3
#
DISCID=880c1109
DTITLE=The Lott-Riley Band - Driftin' Man
DYEAR=2007
DGENRE=Blues
TTITLE0=No One
TTITLE1=Anymore
TTITLE2=Highway 83
TTITLE3=Strut
TTITLE4=Stealth Bomber (Of Love)
TTITLE5=I Don't Get The Blues
TTITLE6=Sleepers Must Awaken
TTITLE7=Hold Your Mouth Right
TTITLE8=Driftin' Man
EXTD=
EXTT0=
EXTT1=
EXTT2=
EXTT3=
EXTT4=
EXTT5=
EXTT6=
EXTT7=
EXTT8=
PLAYORDER=
